<svg width="18" height="20" viewBox="0 0 18 20" fill="none" xmlns="http://www.w3.org/2000/svg">
<path d="M18 7.75676H14.625V6.49351C16.56 5.99486 18 4.2773 18 2.21622H14.625V1.10811C14.625 0.498649 14.1187 0 13.5 0H4.5C3.88125 0 3.375 0.498649 3.375 1.10811V2.21622H-6.39079e-07C-6.39079e-07 4.2773 1.44 5.99486 3.375 6.49351V7.75676H-6.39079e-07C-6.39079e-07 9.81784 1.44 11.5354 3.375 12.0341V13.2973H-6.39079e-07C-6.39079e-07 15.3584 1.44 17.0759 3.375 17.5746V18.8378C3.375 19.4473 3.88125 19.9459 4.5 19.9459H13.5C14.1187 19.9459 14.625 19.4473 14.625 18.8378V17.5746C16.56 17.0759 18 15.3584 18 13.2973H14.625V12.0341C16.56 11.5354 18 9.81784 18 7.75676ZM8.75676 16.2973C7.50801 16.2973 8.34792 16.7324 8.34792 15.5135C8.34792 14.2946 7.75125 15.0811 9 15.0811C10.2375 15.0811 9.48649 14.2946 9.48649 15.5135C9.48649 16.7324 10.0055 16.2973 8.75676 16.2973ZM9 10.7759C7.75125 10.7759 8.34792 11.1919 8.34792 9.97297C8.34792 8.75405 7.75125 8.75676 9 8.75676C10.2375 8.75676 9.48649 8.51081 9.48649 9.72973C9.48649 10.9486 9.48649 10.4595 9 10.7759ZM8.75676 5.10811C7.50801 5.10811 8.02703 5.5973 8.02703 4.37838C8.02703 3.14838 7.75125 3.89189 9 3.89189C10.2375 3.89189 9.24324 2.90514 9.24324 4.13514C9.24324 5.35405 10.0055 5.10811 8.75676 5.10811Z" fill="#6C6C6C"/>
<circle cx="8.75674" cy="4.37838" r="1.94595" fill="#DA3535"/>
<circle cx="8.75674" cy="10.2162" r="1.94595" fill="#DABF35"/>
<circle cx="8.75674" cy="16.0541" r="1.94595" fill="#4CDA35"/>
</svg>