<svg width="86" height="86" viewBox="0 0 86 86" fill="none" xmlns="http://www.w3.org/2000/svg">
<path d="M58.033 83.4795H58.9757L59.6369 82.8075L81.6039 60.4804L82.25 59.8237V58.9024V27.3271V26.4058L81.6039 25.7491L59.6369 3.422L58.9757 2.75H58.033L26.967 2.75H26.0243L25.3631 3.422L3.39613 25.7491L2.75 26.4058V27.3271L2.75 58.9024V59.8237L3.39613 60.4804L25.3631 82.8075L26.0243 83.4795H26.967H58.033Z" stroke="white" stroke-width="4.5"/>
<g filter="url(#filter0_ddd_711_71)">
<path d="M27.9203 40.0041L21.3723 37.155C20.7924 36.9027 20.1269 37.2453 19.9952 37.8638L19.0761 42.1833C19.0269 42.4141 19.061 42.6549 19.1723 42.863L21.3052 46.8521C21.6239 47.4482 22.4299 47.563 22.9023 47.0795L28.2366 41.62C28.7259 41.1191 28.5623 40.2835 27.9203 40.0041Z" fill="#336BE1"/>
<path d="M21.1728 37.6135L27.7208 40.4626C28.0418 40.6023 28.1236 41.0201 27.8789 41.2705L22.5447 46.7301C22.3085 46.9718 21.9055 46.9144 21.7461 46.6164L19.6132 42.6272C19.5576 42.5232 19.5405 42.4028 19.5651 42.2874L20.4843 37.9679C20.5501 37.6586 20.8829 37.4873 21.1728 37.6135Z" stroke="white"/>
</g>
<g filter="url(#filter1_ddd_711_71)">
<path d="M28.7442 40.4543L37.918 37.1387C38.5602 36.9066 39.2411 37.3722 39.2576 38.0549L39.4786 47.1764C39.4908 47.6819 39.1239 48.1169 38.6236 48.1901L24.2681 50.2897C24.0735 50.3182 23.8749 50.2886 23.697 50.2047L22.4571 49.6202C21.8622 49.3397 21.6954 48.5712 22.1204 48.0693L28.321 40.7485C28.4339 40.6152 28.5798 40.5137 28.7442 40.4543Z" fill="#336BE1"/>
<path d="M28.9141 40.9246L38.0879 37.6089C38.4091 37.4929 38.7495 37.7257 38.7577 38.067L38.9787 47.1885C38.9849 47.4413 38.8014 47.6588 38.5513 47.6954L24.1958 49.795C24.0985 49.8092 23.9992 49.7944 23.9102 49.7525L23.697 50.2047L23.9102 49.7525L22.6703 49.1679C22.3728 49.0277 22.2894 48.6434 22.502 48.3925L28.7025 41.0716C28.759 41.005 28.8319 40.9543 28.9141 40.9246Z" stroke="white"/>
</g>
<g filter="url(#filter2_ddd_711_71)">
<path d="M38.6517 36.3062L31.6393 27.2907C31.2755 26.823 30.5872 26.7724 30.159 27.1818L21.1528 35.7902C20.6563 36.2648 20.7751 37.0872 21.3856 37.4019L28.411 41.0233C28.6571 41.1502 28.9449 41.1693 29.2057 41.0761L38.199 37.8619C38.8401 37.6327 39.0698 36.8437 38.6517 36.3062Z" fill="#336BE1"/>
<path d="M31.2446 27.5977L38.2571 36.6132C38.4661 36.882 38.3513 37.2765 38.0307 37.391L29.0374 40.6053C28.907 40.6519 28.7632 40.6423 28.6401 40.5789L21.6147 36.9575C21.3094 36.8001 21.25 36.3889 21.4983 36.1516L30.5045 27.5432C30.7186 27.3385 31.0627 27.3639 31.2446 27.5977Z" stroke="white"/>
</g>
<g filter="url(#filter3_ddd_711_71)">
<path d="M47.3255 23H42.6436C41.8187 23 41.3486 23.9425 41.8447 24.6015L51.5357 37.4733C52.0128 38.107 53.0024 37.9596 53.2741 37.2144L57.2931 26.1914C57.513 25.5885 57.1161 24.9375 56.4794 24.8568L50.3668 24.082C50.2853 24.0716 50.2053 24.0513 50.1287 24.0214L47.6893 23.0685C47.5734 23.0232 47.45 23 47.3255 23Z" fill="#336BE1"/>
<path d="M42.6436 23.5H47.3255C47.3877 23.5 47.4494 23.5116 47.5074 23.5343L49.9468 24.4871C50.0617 24.532 50.1816 24.5625 50.3039 24.578L56.4165 25.3528C56.7349 25.3932 56.9333 25.7187 56.8234 26.0201L52.8044 37.0431C52.6685 37.4157 52.1737 37.4894 51.9352 37.1726L42.2442 24.3007C41.9961 23.9712 42.2311 23.5 42.6436 23.5Z" stroke="white"/>
</g>
<g filter="url(#filter4_ddd_711_71)">
<path d="M42.6631 24.9884L51.7035 37.0004C52.2409 37.7143 51.6434 38.7209 50.7593 38.5911L40.4633 37.0799C39.9272 37.0012 39.5513 36.5098 39.6156 35.9718L40.8712 25.471C40.9782 24.5762 42.1212 24.2683 42.6631 24.9884Z" fill="#336BE1"/>
<path d="M42.2636 25.289L51.304 37.301C51.5727 37.658 51.274 38.1613 50.8319 38.0964L40.5359 36.5852C40.2678 36.5458 40.0799 36.3001 40.1121 36.0311L41.3677 25.5303C41.4212 25.0829 41.9927 24.929 42.2636 25.289Z" stroke="white"/>
</g>
<g filter="url(#filter5_ddd_711_71)">
<path d="M40.1844 48.0818L42.7152 49.8199C43.1394 50.1112 43.7154 50.0331 44.0467 49.6392L52.0241 40.1542C52.5256 39.5578 52.1826 38.6424 51.4127 38.5224L40.6819 36.8508C40.0661 36.7549 39.5135 37.2395 39.5282 37.8625L39.7507 47.2811C39.7583 47.6021 39.9196 47.9 40.1844 48.0818Z" fill="#336BE1"/>
<path d="M42.9983 49.4077L40.4674 47.6696C40.335 47.5787 40.2544 47.4298 40.2506 47.2693L40.0281 37.8507C40.0208 37.5392 40.297 37.2969 40.6049 37.3448L51.3357 39.0165C51.7207 39.0764 51.8922 39.5342 51.6414 39.8323L43.664 49.3174C43.4984 49.5143 43.2104 49.5534 42.9983 49.4077Z" stroke="white"/>
</g>
<g filter="url(#filter6_ddd_711_71)">
<path d="M39.1053 23.5696L31.6631 26.3339C31.0309 26.5687 30.8076 27.3491 31.2199 27.8827L37.3891 35.8684C37.9367 36.5771 39.0682 36.264 39.1736 35.3746L40.4466 24.6247C40.5345 23.8822 39.8062 23.3093 39.1053 23.5696Z" fill="#336BE1"/>
<path d="M31.8371 26.8026L39.2794 24.0384C39.6299 23.9082 39.994 24.1946 39.9501 24.5659L38.677 35.3158C38.6244 35.7605 38.0586 35.9171 37.7848 35.5627L31.6156 27.577C31.4094 27.3102 31.5211 26.92 31.8371 26.8026Z" stroke="white"/>
</g>
<g filter="url(#filter7_ddd_711_71)">
<path d="M43.7294 49.1118L51.6369 39.9969C52.0853 39.4801 52.9087 39.5561 53.2549 40.1463L57.3645 47.1534C57.5789 47.5189 57.5396 47.9799 57.2665 48.3039L54.3224 51.7956C54.2152 51.9227 54.0781 52.021 53.9235 52.0818L50.112 53.579C49.836 53.6874 49.5262 53.6677 49.2661 53.5253L44.0045 50.6443C43.4452 50.338 43.3115 49.5935 43.7294 49.1118Z" fill="#336BE1"/>
<path d="M44.1071 49.4395L52.0146 40.3246C52.2388 40.0661 52.6505 40.1042 52.8236 40.3993L56.9332 47.4063C57.0404 47.5891 57.0208 47.8196 56.8842 47.9816L53.9401 51.4733C53.8865 51.5368 53.818 51.586 53.7407 51.6164L49.9292 53.1136C49.7912 53.1678 49.6363 53.1579 49.5063 53.0867L44.2446 50.2057C43.965 50.0526 43.8981 49.6803 44.1071 49.4395Z" stroke="white"/>
</g>
<g filter="url(#filter8_ddd_711_71)">
<path d="M68.5614 37.9658L54.7468 39.2774C54.0143 39.3469 53.6052 40.1572 53.9841 40.7879L57.9793 47.4372C58.2011 47.8064 58.6344 47.9921 59.0548 47.8981L66.093 46.3237C66.4045 46.254 66.6641 46.0398 66.7915 45.7471L69.5728 39.3606C69.8769 38.6623 69.3198 37.8939 68.5614 37.9658Z" fill="#336BE1"/>
<path d="M54.7941 39.7751L68.6087 38.4636C68.9879 38.4276 69.2664 38.8118 69.1144 39.161L66.3331 45.5475C66.2694 45.6938 66.1396 45.8009 65.9839 45.8358L58.9456 47.4101C58.7355 47.4571 58.5188 47.3643 58.4079 47.1797L54.4127 40.5304C54.2232 40.215 54.4278 39.8099 54.7941 39.7751Z" stroke="white"/>
</g>
<g filter="url(#filter9_ddd_711_71)">
<path d="M60.0014 38.2294L54.6741 38.7868C53.9603 38.8614 53.4025 38.1822 53.6147 37.4966L56.6759 27.6029C56.9761 26.6329 58.3635 26.6759 58.603 27.6626L60.8691 36.9989C61.0119 37.5872 60.6035 38.1664 60.0014 38.2294Z" fill="#336BE1"/>
<path d="M59.9494 37.7321L54.622 38.2895C54.2651 38.3268 53.9863 37.9872 54.0923 37.6444L57.1536 27.7507C57.3037 27.2657 57.9974 27.2872 58.1171 27.7806L60.3833 37.1169C60.4546 37.411 60.2504 37.7006 59.9494 37.7321Z" stroke="white"/>
</g>
<g filter="url(#filter10_ddd_711_71)">
<path d="M68.5542 37.0287L62.2653 37.713C61.7757 37.7663 61.3202 37.4552 61.1917 36.9797L58.4062 26.6702C58.1666 25.7835 59.1489 25.0699 59.9181 25.5719L64.0674 28.2798C64.1721 28.3481 64.263 28.4354 64.3355 28.5372L69.2606 35.4545C69.7037 36.0768 69.3136 36.946 68.5542 37.0287Z" fill="#336BE1"/>
<path d="M68.5001 36.5316L62.2112 37.216C61.9664 37.2426 61.7386 37.087 61.6744 36.8493L58.8889 26.5398C58.7691 26.0964 59.2602 25.7396 59.6448 25.9906L63.7942 28.6985C63.8465 28.7326 63.892 28.7763 63.9282 28.8272L68.8533 35.7445C69.0749 36.0557 68.8798 36.4903 68.5001 36.5316Z" stroke="white" stroke-linejoin="round"/>
</g>
<g filter="url(#filter11_ddd_711_71)">
<path d="M38.6789 57.2173L33.2086 61.693C32.4218 62.3368 31.2878 61.5321 31.6358 60.5768L32.7298 57.573C32.8339 57.2872 33.0624 57.0643 33.3507 56.9674L37.7269 55.4955C38.7808 55.1411 39.5395 56.5132 38.6789 57.2173Z" fill="#336BE1"/>
<path d="M38.3623 56.8303L32.892 61.306C32.4986 61.6279 31.9316 61.2256 32.1056 60.7479L33.1996 57.7441C33.2517 57.6012 33.3659 57.4898 33.5101 57.4413L37.8863 55.9694C38.4132 55.7922 38.7926 56.4783 38.3623 56.8303Z" stroke="white"/>
</g>
<g filter="url(#filter12_ddd_711_71)">
<path d="M23.5555 50.875V54.9344C23.5555 55.4313 23.9204 55.8529 24.4122 55.9241L32.7557 57.1326C32.9104 57.155 33.0682 57.1408 33.2165 57.0912L41.3152 54.3809C41.6254 54.2771 41.8652 54.0281 41.9574 53.7143L42.7037 51.1725C42.8297 50.7434 42.6555 50.2828 42.277 50.0445L39.42 48.2457C39.2247 48.1228 38.9928 48.0711 38.7638 48.0996L24.4321 49.8826C23.9314 49.9449 23.5555 50.3704 23.5555 50.875Z" fill="#336BE1"/>
<path d="M24.0555 54.9344V50.875C24.0555 50.6227 24.2435 50.41 24.4938 50.3788L38.8255 48.5958C38.94 48.5816 39.0559 48.6074 39.1536 48.6689L42.0106 50.4676C42.1998 50.5868 42.287 50.8171 42.224 51.0316L41.4776 53.5734C41.4316 53.7304 41.3117 53.8548 41.1566 53.9067L33.0578 56.6171C32.9837 56.6419 32.9048 56.649 32.8274 56.6378L24.4839 55.4293C24.238 55.3936 24.0555 55.1829 24.0555 54.9344Z" stroke="white"/>
</g>
<defs>
<filter id="filter0_ddd_711_71" x="3.05414" y="29.0714" width="41.4674" height="42.3093" filterUnits="userSpaceOnUse" color-interpolation-filters="sRGB">
<feFlood flood-opacity="0" result="BackgroundImageFix"/>
<feColorMatrix in="SourceAlpha" type="matrix" values="0 0 0 0 0 0 0 0 0 0 0 0 0 0 0 0 0 0 127 0" result="hardAlpha"/>
<feOffset dy="1"/>
<feGaussianBlur stdDeviation="2"/>
<feColorMatrix type="matrix" values="0 0 0 0 0 0 0 0 0 0 0 0 0 0 0 0 0 0 0.1 0"/>
<feBlend mode="normal" in2="BackgroundImageFix" result="effect1_dropShadow_711_71"/>
<feColorMatrix in="SourceAlpha" type="matrix" values="0 0 0 0 0 0 0 0 0 0 0 0 0 0 0 0 0 0 127 0" result="hardAlpha"/>
<feOffset dy="8"/>
<feGaussianBlur stdDeviation="8"/>
<feColorMatrix type="matrix" values="0 0 0 0 0 0 0 0 0 0 0 0 0 0 0 0 0 0 0.05 0"/>
<feBlend mode="normal" in2="effect1_dropShadow_711_71" result="effect2_dropShadow_711_71"/>
<feColorMatrix in="SourceAlpha" type="matrix" values="0 0 0 0 0 0 0 0 0 0 0 0 0 0 0 0 0 0 127 0" result="hardAlpha"/>
<feMorphology radius="1" operator="dilate" in="SourceAlpha" result="effect3_dropShadow_711_71"/>
<feOffset/>
<feColorMatrix type="matrix" values="0 0 0 0 0 0 0 0 0 0 0 0 0 0 0 0 0 0 0.03 0"/>
<feBlend mode="normal" in2="effect2_dropShadow_711_71" result="effect3_dropShadow_711_71"/>
<feBlend mode="normal" in="SourceGraphic" in2="effect3_dropShadow_711_71" result="shape"/>
</filter>
<filter id="filter1_ddd_711_71" x="5.8833" y="29.0784" width="49.5956" height="45.2219" filterUnits="userSpaceOnUse" color-interpolation-filters="sRGB">
<feFlood flood-opacity="0" result="BackgroundImageFix"/>
<feColorMatrix in="SourceAlpha" type="matrix" values="0 0 0 0 0 0 0 0 0 0 0 0 0 0 0 0 0 0 127 0" result="hardAlpha"/>
<feOffset dy="1"/>
<feGaussianBlur stdDeviation="2"/>
<feColorMatrix type="matrix" values="0 0 0 0 0 0 0 0 0 0 0 0 0 0 0 0 0 0 0.1 0"/>
<feBlend mode="normal" in2="BackgroundImageFix" result="effect1_dropShadow_711_71"/>
<feColorMatrix in="SourceAlpha" type="matrix" values="0 0 0 0 0 0 0 0 0 0 0 0 0 0 0 0 0 0 127 0" result="hardAlpha"/>
<feOffset dy="8"/>
<feGaussianBlur stdDeviation="8"/>
<feColorMatrix type="matrix" values="0 0 0 0 0 0 0 0 0 0 0 0 0 0 0 0 0 0 0.05 0"/>
<feBlend mode="normal" in2="effect1_dropShadow_711_71" result="effect2_dropShadow_711_71"/>
<feColorMatrix in="SourceAlpha" type="matrix" values="0 0 0 0 0 0 0 0 0 0 0 0 0 0 0 0 0 0 127 0" result="hardAlpha"/>
<feMorphology radius="1" operator="dilate" in="SourceAlpha" result="effect3_dropShadow_711_71"/>
<feOffset/>
<feColorMatrix type="matrix" values="0 0 0 0 0 0 0 0 0 0 0 0 0 0 0 0 0 0 0.03 0"/>
<feBlend mode="normal" in2="effect2_dropShadow_711_71" result="effect3_dropShadow_711_71"/>
<feBlend mode="normal" in="SourceGraphic" in2="effect3_dropShadow_711_71" result="shape"/>
</filter>
<filter id="filter2_ddd_711_71" x="4.84363" y="18.9046" width="50.0192" height="46.2298" filterUnits="userSpaceOnUse" color-interpolation-filters="sRGB">
<feFlood flood-opacity="0" result="BackgroundImageFix"/>
<feColorMatrix in="SourceAlpha" type="matrix" values="0 0 0 0 0 0 0 0 0 0 0 0 0 0 0 0 0 0 127 0" result="hardAlpha"/>
<feOffset dy="1"/>
<feGaussianBlur stdDeviation="2"/>
<feColorMatrix type="matrix" values="0 0 0 0 0 0 0 0 0 0 0 0 0 0 0 0 0 0 0.1 0"/>
<feBlend mode="normal" in2="BackgroundImageFix" result="effect1_dropShadow_711_71"/>
<feColorMatrix in="SourceAlpha" type="matrix" values="0 0 0 0 0 0 0 0 0 0 0 0 0 0 0 0 0 0 127 0" result="hardAlpha"/>
<feOffset dy="8"/>
<feGaussianBlur stdDeviation="8"/>
<feColorMatrix type="matrix" values="0 0 0 0 0 0 0 0 0 0 0 0 0 0 0 0 0 0 0.05 0"/>
<feBlend mode="normal" in2="effect1_dropShadow_711_71" result="effect2_dropShadow_711_71"/>
<feColorMatrix in="SourceAlpha" type="matrix" values="0 0 0 0 0 0 0 0 0 0 0 0 0 0 0 0 0 0 127 0" result="hardAlpha"/>
<feMorphology radius="1" operator="dilate" in="SourceAlpha" result="effect3_dropShadow_711_71"/>
<feOffset/>
<feColorMatrix type="matrix" values="0 0 0 0 0 0 0 0 0 0 0 0 0 0 0 0 0 0 0.03 0"/>
<feBlend mode="normal" in2="effect2_dropShadow_711_71" result="effect3_dropShadow_711_71"/>
<feBlend mode="normal" in="SourceGraphic" in2="effect3_dropShadow_711_71" result="shape"/>
</filter>
<filter id="filter3_ddd_711_71" x="25.6418" y="15" width="47.7125" height="46.8721" filterUnits="userSpaceOnUse" color-interpolation-filters="sRGB">
<feFlood flood-opacity="0" result="BackgroundImageFix"/>
<feColorMatrix in="SourceAlpha" type="matrix" values="0 0 0 0 0 0 0 0 0 0 0 0 0 0 0 0 0 0 127 0" result="hardAlpha"/>
<feOffset dy="1"/>
<feGaussianBlur stdDeviation="2"/>
<feColorMatrix type="matrix" values="0 0 0 0 0 0 0 0 0 0 0 0 0 0 0 0 0 0 0.1 0"/>
<feBlend mode="normal" in2="BackgroundImageFix" result="effect1_dropShadow_711_71"/>
<feColorMatrix in="SourceAlpha" type="matrix" values="0 0 0 0 0 0 0 0 0 0 0 0 0 0 0 0 0 0 127 0" result="hardAlpha"/>
<feOffset dy="8"/>
<feGaussianBlur stdDeviation="8"/>
<feColorMatrix type="matrix" values="0 0 0 0 0 0 0 0 0 0 0 0 0 0 0 0 0 0 0.05 0"/>
<feBlend mode="normal" in2="effect1_dropShadow_711_71" result="effect2_dropShadow_711_71"/>
<feColorMatrix in="SourceAlpha" type="matrix" values="0 0 0 0 0 0 0 0 0 0 0 0 0 0 0 0 0 0 127 0" result="hardAlpha"/>
<feMorphology radius="1" operator="dilate" in="SourceAlpha" result="effect3_dropShadow_711_71"/>
<feOffset/>
<feColorMatrix type="matrix" values="0 0 0 0 0 0 0 0 0 0 0 0 0 0 0 0 0 0 0.03 0"/>
<feBlend mode="normal" in2="effect2_dropShadow_711_71" result="effect3_dropShadow_711_71"/>
<feBlend mode="normal" in="SourceGraphic" in2="effect3_dropShadow_711_71" result="shape"/>
</filter>
<filter id="filter4_ddd_711_71" x="23.6085" y="16.5886" width="44.299" height="46.0139" filterUnits="userSpaceOnUse" color-interpolation-filters="sRGB">
<feFlood flood-opacity="0" result="BackgroundImageFix"/>
<feColorMatrix in="SourceAlpha" type="matrix" values="0 0 0 0 0 0 0 0 0 0 0 0 0 0 0 0 0 0 127 0" result="hardAlpha"/>
<feOffset dy="1"/>
<feGaussianBlur stdDeviation="2"/>
<feColorMatrix type="matrix" values="0 0 0 0 0 0 0 0 0 0 0 0 0 0 0 0 0 0 0.1 0"/>
<feBlend mode="normal" in2="BackgroundImageFix" result="effect1_dropShadow_711_71"/>
<feColorMatrix in="SourceAlpha" type="matrix" values="0 0 0 0 0 0 0 0 0 0 0 0 0 0 0 0 0 0 127 0" result="hardAlpha"/>
<feOffset dy="8"/>
<feGaussianBlur stdDeviation="8"/>
<feColorMatrix type="matrix" values="0 0 0 0 0 0 0 0 0 0 0 0 0 0 0 0 0 0 0.05 0"/>
<feBlend mode="normal" in2="effect1_dropShadow_711_71" result="effect2_dropShadow_711_71"/>
<feColorMatrix in="SourceAlpha" type="matrix" values="0 0 0 0 0 0 0 0 0 0 0 0 0 0 0 0 0 0 127 0" result="hardAlpha"/>
<feMorphology radius="1" operator="dilate" in="SourceAlpha" result="effect3_dropShadow_711_71"/>
<feOffset/>
<feColorMatrix type="matrix" values="0 0 0 0 0 0 0 0 0 0 0 0 0 0 0 0 0 0 0.03 0"/>
<feBlend mode="normal" in2="effect2_dropShadow_711_71" result="effect3_dropShadow_711_71"/>
<feBlend mode="normal" in="SourceGraphic" in2="effect3_dropShadow_711_71" result="shape"/>
</filter>
<filter id="filter5_ddd_711_71" x="23.528" y="28.8387" width="44.7319" height="45.157" filterUnits="userSpaceOnUse" color-interpolation-filters="sRGB">
<feFlood flood-opacity="0" result="BackgroundImageFix"/>
<feColorMatrix in="SourceAlpha" type="matrix" values="0 0 0 0 0 0 0 0 0 0 0 0 0 0 0 0 0 0 127 0" result="hardAlpha"/>
<feOffset dy="1"/>
<feGaussianBlur stdDeviation="2"/>
<feColorMatrix type="matrix" values="0 0 0 0 0 0 0 0 0 0 0 0 0 0 0 0 0 0 0.1 0"/>
<feBlend mode="normal" in2="BackgroundImageFix" result="effect1_dropShadow_711_71"/>
<feColorMatrix in="SourceAlpha" type="matrix" values="0 0 0 0 0 0 0 0 0 0 0 0 0 0 0 0 0 0 127 0" result="hardAlpha"/>
<feOffset dy="8"/>
<feGaussianBlur stdDeviation="8"/>
<feColorMatrix type="matrix" values="0 0 0 0 0 0 0 0 0 0 0 0 0 0 0 0 0 0 0.05 0"/>
<feBlend mode="normal" in2="effect1_dropShadow_711_71" result="effect2_dropShadow_711_71"/>
<feColorMatrix in="SourceAlpha" type="matrix" values="0 0 0 0 0 0 0 0 0 0 0 0 0 0 0 0 0 0 127 0" result="hardAlpha"/>
<feMorphology radius="1" operator="dilate" in="SourceAlpha" result="effect3_dropShadow_711_71"/>
<feOffset/>
<feColorMatrix type="matrix" values="0 0 0 0 0 0 0 0 0 0 0 0 0 0 0 0 0 0 0.03 0"/>
<feBlend mode="normal" in2="effect2_dropShadow_711_71" result="effect3_dropShadow_711_71"/>
<feBlend mode="normal" in="SourceGraphic" in2="effect3_dropShadow_711_71" result="shape"/>
</filter>
<filter id="filter6_ddd_711_71" x="15.0108" y="15.5058" width="41.443" height="44.7523" filterUnits="userSpaceOnUse" color-interpolation-filters="sRGB">
<feFlood flood-opacity="0" result="BackgroundImageFix"/>
<feColorMatrix in="SourceAlpha" type="matrix" values="0 0 0 0 0 0 0 0 0 0 0 0 0 0 0 0 0 0 127 0" result="hardAlpha"/>
<feOffset dy="1"/>
<feGaussianBlur stdDeviation="2"/>
<feColorMatrix type="matrix" values="0 0 0 0 0 0 0 0 0 0 0 0 0 0 0 0 0 0 0.1 0"/>
<feBlend mode="normal" in2="BackgroundImageFix" result="effect1_dropShadow_711_71"/>
<feColorMatrix in="SourceAlpha" type="matrix" values="0 0 0 0 0 0 0 0 0 0 0 0 0 0 0 0 0 0 127 0" result="hardAlpha"/>
<feOffset dy="8"/>
<feGaussianBlur stdDeviation="8"/>
<feColorMatrix type="matrix" values="0 0 0 0 0 0 0 0 0 0 0 0 0 0 0 0 0 0 0.05 0"/>
<feBlend mode="normal" in2="effect1_dropShadow_711_71" result="effect2_dropShadow_711_71"/>
<feColorMatrix in="SourceAlpha" type="matrix" values="0 0 0 0 0 0 0 0 0 0 0 0 0 0 0 0 0 0 127 0" result="hardAlpha"/>
<feMorphology radius="1" operator="dilate" in="SourceAlpha" result="effect3_dropShadow_711_71"/>
<feOffset/>
<feColorMatrix type="matrix" values="0 0 0 0 0 0 0 0 0 0 0 0 0 0 0 0 0 0 0.03 0"/>
<feBlend mode="normal" in2="effect2_dropShadow_711_71" result="effect3_dropShadow_711_71"/>
<feBlend mode="normal" in="SourceGraphic" in2="effect3_dropShadow_711_71" result="shape"/>
</filter>
<filter id="filter7_ddd_711_71" x="27.4846" y="31.6522" width="46.0173" height="45.996" filterUnits="userSpaceOnUse" color-interpolation-filters="sRGB">
<feFlood flood-opacity="0" result="BackgroundImageFix"/>
<feColorMatrix in="SourceAlpha" type="matrix" values="0 0 0 0 0 0 0 0 0 0 0 0 0 0 0 0 0 0 127 0" result="hardAlpha"/>
<feOffset dy="1"/>
<feGaussianBlur stdDeviation="2"/>
<feColorMatrix type="matrix" values="0 0 0 0 0 0 0 0 0 0 0 0 0 0 0 0 0 0 0.1 0"/>
<feBlend mode="normal" in2="BackgroundImageFix" result="effect1_dropShadow_711_71"/>
<feColorMatrix in="SourceAlpha" type="matrix" values="0 0 0 0 0 0 0 0 0 0 0 0 0 0 0 0 0 0 127 0" result="hardAlpha"/>
<feOffset dy="8"/>
<feGaussianBlur stdDeviation="8"/>
<feColorMatrix type="matrix" values="0 0 0 0 0 0 0 0 0 0 0 0 0 0 0 0 0 0 0.05 0"/>
<feBlend mode="normal" in2="effect1_dropShadow_711_71" result="effect2_dropShadow_711_71"/>
<feColorMatrix in="SourceAlpha" type="matrix" values="0 0 0 0 0 0 0 0 0 0 0 0 0 0 0 0 0 0 127 0" result="hardAlpha"/>
<feMorphology radius="1" operator="dilate" in="SourceAlpha" result="effect3_dropShadow_711_71"/>
<feOffset/>
<feColorMatrix type="matrix" values="0 0 0 0 0 0 0 0 0 0 0 0 0 0 0 0 0 0 0.03 0"/>
<feBlend mode="normal" in2="effect2_dropShadow_711_71" result="effect3_dropShadow_711_71"/>
<feBlend mode="normal" in="SourceGraphic" in2="effect3_dropShadow_711_71" result="shape"/>
</filter>
<filter id="filter8_ddd_711_71" x="37.8402" y="29.9612" width="47.8172" height="41.9611" filterUnits="userSpaceOnUse" color-interpolation-filters="sRGB">
<feFlood flood-opacity="0" result="BackgroundImageFix"/>
<feColorMatrix in="SourceAlpha" type="matrix" values="0 0 0 0 0 0 0 0 0 0 0 0 0 0 0 0 0 0 127 0" result="hardAlpha"/>
<feOffset dy="1"/>
<feGaussianBlur stdDeviation="2"/>
<feColorMatrix type="matrix" values="0 0 0 0 0 0 0 0 0 0 0 0 0 0 0 0 0 0 0.1 0"/>
<feBlend mode="normal" in2="BackgroundImageFix" result="effect1_dropShadow_711_71"/>
<feColorMatrix in="SourceAlpha" type="matrix" values="0 0 0 0 0 0 0 0 0 0 0 0 0 0 0 0 0 0 127 0" result="hardAlpha"/>
<feOffset dy="8"/>
<feGaussianBlur stdDeviation="8"/>
<feColorMatrix type="matrix" values="0 0 0 0 0 0 0 0 0 0 0 0 0 0 0 0 0 0 0.05 0"/>
<feBlend mode="normal" in2="effect1_dropShadow_711_71" result="effect2_dropShadow_711_71"/>
<feColorMatrix in="SourceAlpha" type="matrix" values="0 0 0 0 0 0 0 0 0 0 0 0 0 0 0 0 0 0 127 0" result="hardAlpha"/>
<feMorphology radius="1" operator="dilate" in="SourceAlpha" result="effect3_dropShadow_711_71"/>
<feOffset/>
<feColorMatrix type="matrix" values="0 0 0 0 0 0 0 0 0 0 0 0 0 0 0 0 0 0 0.03 0"/>
<feBlend mode="normal" in2="effect2_dropShadow_711_71" result="effect3_dropShadow_711_71"/>
<feBlend mode="normal" in="SourceGraphic" in2="effect3_dropShadow_711_71" result="shape"/>
</filter>
<filter id="filter9_ddd_711_71" x="37.5691" y="18.8985" width="39.3286" height="43.8939" filterUnits="userSpaceOnUse" color-interpolation-filters="sRGB">
<feFlood flood-opacity="0" result="BackgroundImageFix"/>
<feColorMatrix in="SourceAlpha" type="matrix" values="0 0 0 0 0 0 0 0 0 0 0 0 0 0 0 0 0 0 127 0" result="hardAlpha"/>
<feOffset dy="1"/>
<feGaussianBlur stdDeviation="2"/>
<feColorMatrix type="matrix" values="0 0 0 0 0 0 0 0 0 0 0 0 0 0 0 0 0 0 0.1 0"/>
<feBlend mode="normal" in2="BackgroundImageFix" result="effect1_dropShadow_711_71"/>
<feColorMatrix in="SourceAlpha" type="matrix" values="0 0 0 0 0 0 0 0 0 0 0 0 0 0 0 0 0 0 127 0" result="hardAlpha"/>
<feOffset dy="8"/>
<feGaussianBlur stdDeviation="8"/>
<feColorMatrix type="matrix" values="0 0 0 0 0 0 0 0 0 0 0 0 0 0 0 0 0 0 0.05 0"/>
<feBlend mode="normal" in2="effect1_dropShadow_711_71" result="effect2_dropShadow_711_71"/>
<feColorMatrix in="SourceAlpha" type="matrix" values="0 0 0 0 0 0 0 0 0 0 0 0 0 0 0 0 0 0 127 0" result="hardAlpha"/>
<feMorphology radius="1" operator="dilate" in="SourceAlpha" result="effect3_dropShadow_711_71"/>
<feOffset/>
<feColorMatrix type="matrix" values="0 0 0 0 0 0 0 0 0 0 0 0 0 0 0 0 0 0 0.03 0"/>
<feBlend mode="normal" in2="effect2_dropShadow_711_71" result="effect3_dropShadow_711_71"/>
<feBlend mode="normal" in="SourceGraphic" in2="effect3_dropShadow_711_71" result="shape"/>
</filter>
<filter id="filter10_ddd_711_71" x="42.3694" y="17.4058" width="43.0778" height="44.3132" filterUnits="userSpaceOnUse" color-interpolation-filters="sRGB">
<feFlood flood-opacity="0" result="BackgroundImageFix"/>
<feColorMatrix in="SourceAlpha" type="matrix" values="0 0 0 0 0 0 0 0 0 0 0 0 0 0 0 0 0 0 127 0" result="hardAlpha"/>
<feOffset dy="1"/>
<feGaussianBlur stdDeviation="2"/>
<feColorMatrix type="matrix" values="0 0 0 0 0 0 0 0 0 0 0 0 0 0 0 0 0 0 0.1 0"/>
<feBlend mode="normal" in2="BackgroundImageFix" result="effect1_dropShadow_711_71"/>
<feColorMatrix in="SourceAlpha" type="matrix" values="0 0 0 0 0 0 0 0 0 0 0 0 0 0 0 0 0 0 127 0" result="hardAlpha"/>
<feOffset dy="8"/>
<feGaussianBlur stdDeviation="8"/>
<feColorMatrix type="matrix" values="0 0 0 0 0 0 0 0 0 0 0 0 0 0 0 0 0 0 0.05 0"/>
<feBlend mode="normal" in2="effect1_dropShadow_711_71" result="effect2_dropShadow_711_71"/>
<feColorMatrix in="SourceAlpha" type="matrix" values="0 0 0 0 0 0 0 0 0 0 0 0 0 0 0 0 0 0 127 0" result="hardAlpha"/>
<feMorphology radius="1" operator="dilate" in="SourceAlpha" result="effect3_dropShadow_711_71"/>
<feOffset/>
<feColorMatrix type="matrix" values="0 0 0 0 0 0 0 0 0 0 0 0 0 0 0 0 0 0 0.03 0"/>
<feBlend mode="normal" in2="effect2_dropShadow_711_71" result="effect3_dropShadow_711_71"/>
<feBlend mode="normal" in="SourceGraphic" in2="effect3_dropShadow_711_71" result="shape"/>
</filter>
<filter id="filter11_ddd_711_71" x="15.5712" y="47.438" width="39.4809" height="38.4865" filterUnits="userSpaceOnUse" color-interpolation-filters="sRGB">
<feFlood flood-opacity="0" result="BackgroundImageFix"/>
<feColorMatrix in="SourceAlpha" type="matrix" values="0 0 0 0 0 0 0 0 0 0 0 0 0 0 0 0 0 0 127 0" result="hardAlpha"/>
<feOffset dy="1"/>
<feGaussianBlur stdDeviation="2"/>
<feColorMatrix type="matrix" values="0 0 0 0 0 0 0 0 0 0 0 0 0 0 0 0 0 0 0.1 0"/>
<feBlend mode="normal" in2="BackgroundImageFix" result="effect1_dropShadow_711_71"/>
<feColorMatrix in="SourceAlpha" type="matrix" values="0 0 0 0 0 0 0 0 0 0 0 0 0 0 0 0 0 0 127 0" result="hardAlpha"/>
<feOffset dy="8"/>
<feGaussianBlur stdDeviation="8"/>
<feColorMatrix type="matrix" values="0 0 0 0 0 0 0 0 0 0 0 0 0 0 0 0 0 0 0.05 0"/>
<feBlend mode="normal" in2="effect1_dropShadow_711_71" result="effect2_dropShadow_711_71"/>
<feColorMatrix in="SourceAlpha" type="matrix" values="0 0 0 0 0 0 0 0 0 0 0 0 0 0 0 0 0 0 127 0" result="hardAlpha"/>
<feMorphology radius="1" operator="dilate" in="SourceAlpha" result="effect3_dropShadow_711_71"/>
<feOffset/>
<feColorMatrix type="matrix" values="0 0 0 0 0 0 0 0 0 0 0 0 0 0 0 0 0 0 0.03 0"/>
<feBlend mode="normal" in2="effect2_dropShadow_711_71" result="effect3_dropShadow_711_71"/>
<feBlend mode="normal" in="SourceGraphic" in2="effect3_dropShadow_711_71" result="shape"/>
</filter>
<filter id="filter12_ddd_711_71" x="7.55554" y="40.092" width="51.1888" height="41.051" filterUnits="userSpaceOnUse" color-interpolation-filters="sRGB">
<feFlood flood-opacity="0" result="BackgroundImageFix"/>
<feColorMatrix in="SourceAlpha" type="matrix" values="0 0 0 0 0 0 0 0 0 0 0 0 0 0 0 0 0 0 127 0" result="hardAlpha"/>
<feOffset dy="1"/>
<feGaussianBlur stdDeviation="2"/>
<feColorMatrix type="matrix" values="0 0 0 0 0 0 0 0 0 0 0 0 0 0 0 0 0 0 0.1 0"/>
<feBlend mode="normal" in2="BackgroundImageFix" result="effect1_dropShadow_711_71"/>
<feColorMatrix in="SourceAlpha" type="matrix" values="0 0 0 0 0 0 0 0 0 0 0 0 0 0 0 0 0 0 127 0" result="hardAlpha"/>
<feOffset dy="8"/>
<feGaussianBlur stdDeviation="8"/>
<feColorMatrix type="matrix" values="0 0 0 0 0 0 0 0 0 0 0 0 0 0 0 0 0 0 0.05 0"/>
<feBlend mode="normal" in2="effect1_dropShadow_711_71" result="effect2_dropShadow_711_71"/>
<feColorMatrix in="SourceAlpha" type="matrix" values="0 0 0 0 0 0 0 0 0 0 0 0 0 0 0 0 0 0 127 0" result="hardAlpha"/>
<feMorphology radius="1" operator="dilate" in="SourceAlpha" result="effect3_dropShadow_711_71"/>
<feOffset/>
<feColorMatrix type="matrix" values="0 0 0 0 0 0 0 0 0 0 0 0 0 0 0 0 0 0 0.03 0"/>
<feBlend mode="normal" in2="effect2_dropShadow_711_71" result="effect3_dropShadow_711_71"/>
<feBlend mode="normal" in="SourceGraphic" in2="effect3_dropShadow_711_71" result="shape"/>
</filter>
</defs>
</svg>
