<svg width="32" height="20" viewBox="0 0 32 20" fill="none" xmlns="http://www.w3.org/2000/svg">
<path d="M28.854 5.88119C30.1757 5.88119 31.2554 4.73268 31.2554 3.32674C31.2554 1.92079 30.1757 0.772278 28.854 0.772278H0.744629C1.6754 2.47525 1.6754 4.17822 0.744629 5.88119H28.854Z" fill="#EDEDED"/>
<path d="M28.854 5.88119C30.2129 5.88119 31.3112 4.67327 31.2554 3.20792C31.1995 1.84158 30.0826 0.792079 28.7981 0.792079H0.372309C0.167539 0.792079 0 0.613861 0 0.39604C0 0.178218 0.167539 0 0.372309 0H28.854C30.5852 0 31.9814 1.48515 31.9814 3.32673C31.9814 5.16832 30.5852 6.65346 28.854 6.65346H0.372309C0.167539 6.65346 0 6.47525 0 6.25742C0 6.0396 0.167539 5.86138 0.372309 5.86138H28.854V5.88119Z" fill="#FFC278"/>
<path d="M30.2502 1.26733L27.9791 1.28713L23.7161 1.32674L15.1716 1.34654L6.62712 1.32674L2.36418 1.30693L0.986632 1.28713C0.968017 1.26733 0.968017 1.24753 0.949402 1.22773L2.34556 1.20792L6.60851 1.18812L15.153 1.16832L23.6975 1.18812L27.9605 1.20792L30.1571 1.22773C30.2129 1.22773 30.2315 1.24753 30.2502 1.26733ZM30.8086 1.86139C30.8086 1.84159 30.79 1.84159 30.79 1.82179L27.9977 1.78218L23.7347 1.76238L15.1902 1.74258L6.64574 1.76238L2.38279 1.78218L1.21002 1.80198C1.21002 1.82178 1.22863 1.84159 1.22863 1.88119L2.38279 1.90099L6.64574 1.9208L15.1902 1.9406L23.7161 1.9208L27.9791 1.90099L30.8086 1.86139ZM31.1065 2.45545C31.1065 2.45545 31.1065 2.43565 31.0879 2.43565L27.9791 2.39604L23.7161 2.37624L15.1716 2.35644L6.62712 2.37624L2.36418 2.39604L1.35894 2.41585C1.35894 2.43565 1.35894 2.47525 1.37756 2.49505L2.38279 2.51485L6.64574 2.53466L15.1902 2.55446L23.7161 2.51485L27.9791 2.49505L31.1065 2.45545ZM0.949402 5.46535L2.34556 5.48515L6.60851 5.50496L15.153 5.52476L23.6975 5.50496L27.9605 5.48515L30.1571 5.46535C30.1757 5.44555 30.1943 5.42575 30.2129 5.42575L27.9418 5.40595L23.6789 5.38614L15.1344 5.36634L6.58989 5.38614L2.32695 5.40595L0.949402 5.42575C0.968017 5.40594 0.968017 5.44555 0.949402 5.46535ZM30.79 4.85149C30.79 4.83169 30.8086 4.83169 30.8086 4.81189L27.9977 4.77228L23.7347 4.75248L15.1902 4.73268L6.64574 4.75248L2.38279 4.77228L1.22863 4.79208C1.22863 4.81188 1.21002 4.83169 1.21002 4.87129L2.38279 4.89109L6.64574 4.9109L15.1902 4.9307L23.7347 4.9109L27.9977 4.89109L30.79 4.85149ZM31.0879 4.23763C31.0879 4.23763 31.0879 4.21783 31.1065 4.21783L27.9977 4.17822L23.7347 4.15842L15.1902 4.13862L6.64574 4.15842L2.38279 4.17822L1.37756 4.19802C1.37756 4.21783 1.37756 4.25743 1.35894 4.27723L2.36418 4.29703L6.62712 4.31684L15.1716 4.33664L23.7161 4.31684L27.9791 4.29703L31.0879 4.23763ZM31.2368 3.64357V3.62377L27.9791 3.58416L23.7161 3.56436L15.1716 3.54456L6.62712 3.56436L2.36418 3.58416L1.43341 3.60396C1.43341 3.62377 1.43341 3.66337 1.43341 3.68317L2.36418 3.70297L6.62712 3.72278L15.1716 3.74258L23.7161 3.70297L27.9791 3.68317L31.2368 3.64357ZM31.2368 3.04951V3.02971L27.9977 2.9901L23.7347 2.9703L15.1902 2.9505L6.64574 2.9703L2.38279 2.9901L1.45202 3.0099C1.45202 3.02971 1.45202 3.06931 1.45202 3.08911L2.38279 3.10891L6.64574 3.12872L15.1902 3.14852L23.7161 3.10891L27.9791 3.08911L31.2368 3.04951Z" fill="#E1E3EF"/>
<path d="M3.77893 5.66336L5.00755 4.91089L6.23618 5.66336V2.37624H3.77893V5.66336Z" fill="#FFC278"/>
<path d="M3.14602 12.5545C1.82433 12.5545 0.744629 11.4059 0.744629 10C0.744629 8.59406 1.82433 7.44554 3.14602 7.44554H31.2554C30.3246 9.14851 30.3246 10.8515 31.2554 12.5545H3.14602Z" fill="#EDEDED"/>
<path d="M3.14601 12.5545C1.78708 12.5545 0.688773 11.3465 0.744619 9.8812C0.800465 8.51486 1.91739 7.46536 3.20186 7.46536H31.6091C31.8138 7.46536 31.9814 7.28714 31.9814 7.06932C31.9814 6.8515 31.8138 6.67328 31.6091 6.67328H3.1274C1.39616 6.67328 0 8.15843 0 10C0 11.8416 1.39616 13.3267 3.1274 13.3267H31.6091C31.8138 13.3267 31.9814 13.1485 31.9814 12.9307C31.9814 12.7129 31.8138 12.5347 31.6091 12.5347H3.14601V12.5545Z" fill="#FF7648"/>
<path d="M1.80571 7.8812L4.00234 7.8614L8.26528 7.84159L16.8098 7.82179L25.3543 7.84159L29.6172 7.8614L31.0134 7.8812C30.9948 7.901 30.9948 7.9208 30.9762 7.9406L29.5986 7.96041L25.3357 7.98021L16.7912 8.00001L8.24666 7.98021L3.98372 7.96041L1.71263 7.9406C1.76848 7.9208 1.78709 7.901 1.80571 7.8812ZM4.00234 8.55447L8.26528 8.57427L16.8098 8.59407L25.3543 8.57427L29.6172 8.55447L30.7714 8.53466C30.7714 8.51486 30.79 8.49506 30.79 8.45546L29.6172 8.43565L25.3543 8.41585L16.8098 8.39605L8.26528 8.41585L4.00234 8.43565L1.21002 8.47526C1.21002 8.49506 1.1914 8.49506 1.1914 8.51486L4.00234 8.55447ZM4.00234 9.14852L8.26528 9.16833L16.8098 9.18813L25.3543 9.16833L29.6172 9.14852L30.6225 9.12872C30.6225 9.10892 30.6225 9.06932 30.6411 9.04951L29.6358 9.02971L25.3729 9.00991L16.8284 8.99011L8.2839 9.00991L4.02095 9.02971L0.912167 9.06932C0.912167 9.06932 0.912166 9.08912 0.89355 9.08912L4.00234 9.14852ZM31.0134 12.0594L29.6358 12.0396L25.3729 12.0198L16.8284 12L8.2839 12.0198L4.02095 12.0396L1.74986 12.0594C1.76848 12.0792 1.78709 12.099 1.80571 12.099L4.00234 12.1188L8.26528 12.1386L16.8098 12.1584L25.3543 12.1386L29.6172 12.1188L31.0134 12.099C31.032 12.1188 31.032 12.0792 31.0134 12.0594ZM4.00234 11.5446L8.26528 11.5644L16.8098 11.5842L25.3543 11.5644L29.6172 11.5446L30.79 11.5248C30.79 11.505 30.7714 11.4852 30.7714 11.4456L29.6172 11.4258L25.3543 11.4059L16.8098 11.3861L8.26528 11.4059L4.00234 11.4258L1.1914 11.4654C1.1914 11.4852 1.21002 11.4852 1.21002 11.505L4.00234 11.5446ZM4.00234 10.9505L8.26528 10.9703L16.8098 10.9901L25.3543 10.9703L29.6172 10.9505L30.6225 10.9307C30.6225 10.9109 30.6225 10.8713 30.6038 10.8515L29.5986 10.8317L25.3357 10.8119L16.7912 10.7921L8.24666 10.8119L3.98372 10.8317L0.874937 10.8713C0.874937 10.8713 0.874935 10.8911 0.89355 10.8911L4.00234 10.9505ZM4.00234 10.3564L8.26528 10.3762L16.8098 10.3961L25.3543 10.3762L29.6172 10.3564L30.548 10.3366C30.548 10.3168 30.548 10.2772 30.548 10.2574L29.6172 10.2376L25.3543 10.2178L16.8098 10.198L8.26528 10.2178L4.00234 10.2376L0.744629 10.2772V10.297L4.00234 10.3564ZM4.00234 9.76239L8.26528 9.78219L16.8098 9.80199L25.3543 9.78219L29.6172 9.76239L30.548 9.74258C30.548 9.72278 30.548 9.68318 30.548 9.66338L29.6172 9.64357L25.3543 9.62377L16.8098 9.60397L8.26528 9.62377L4.00234 9.64357L0.763243 9.68318V9.70298L4.00234 9.76239Z" fill="#E1E3EF"/>
<path d="M28.9843 11.1683L27.7557 10.4158L26.5457 11.1683V7.86139H28.9843V11.1683Z" fill="#FE9946"/>
<path d="M28.854 19.2277C30.1757 19.2277 31.2554 18.0792 31.2554 16.6733C31.2554 15.2673 30.1757 14.1188 28.854 14.1188H0.744629C1.6754 15.8218 1.6754 17.5247 0.744629 19.2277H28.854V19.2277Z" fill="#EDEDED"/>
<path d="M28.854 19.2277C30.2129 19.2277 31.3112 18.0198 31.2554 16.5544C31.1995 15.1881 30.0826 14.1386 28.7981 14.1386H0.390925C0.186155 14.1386 0.0186157 13.9604 0.0186157 13.7426C0.0186157 13.5247 0.186155 13.3465 0.390925 13.3465H28.8726C30.6038 13.3465 32 14.8317 32 16.6733C32 18.5148 30.6038 20 28.8726 20H0.390925C0.186155 20 0.0186157 19.8218 0.0186157 19.6039C0.0186157 19.3861 0.186155 19.2079 0.390925 19.2079H28.854V19.2277Z" fill="#8F98FF"/>
<path d="M30.2502 14.6139L27.9791 14.6337L23.7161 14.6535L15.1716 14.6733L6.62712 14.6535L2.36418 14.6337L0.986632 14.6139C0.968017 14.5941 0.968017 14.5743 0.949402 14.5545L2.34556 14.5347L6.60851 14.5149L15.153 14.4951L23.6975 14.5149L27.9605 14.5347L30.1571 14.5545C30.2129 14.5743 30.2315 14.5941 30.2502 14.6139ZM30.8086 15.2079C30.8086 15.1881 30.79 15.1881 30.79 15.1683L27.9977 15.1287L23.7347 15.1089L15.1902 15.0891L6.64574 15.1089L2.38279 15.1287L1.21002 15.1485C1.21002 15.1683 1.22863 15.1881 1.22863 15.2277L2.38279 15.2475L6.64574 15.2673L15.1902 15.2871L23.7347 15.2673L27.9977 15.2475L30.8086 15.2079ZM31.1065 15.802C31.1065 15.802 31.1065 15.7822 31.0879 15.7822L27.9791 15.7426L23.7161 15.7228L15.1716 15.703L6.62712 15.7228L2.36418 15.7426L1.35894 15.7624C1.35894 15.7822 1.35894 15.8218 1.37756 15.8416L2.38279 15.8614L6.64574 15.8812L15.1902 15.901L23.7347 15.8812L27.9977 15.8614L31.1065 15.802ZM30.79 18.198C30.79 18.1782 30.8086 18.1782 30.8086 18.1584L27.9977 18.1188L23.7347 18.099L15.1902 18.0792L6.64574 18.099L2.38279 18.1188L1.22863 18.1386C1.22863 18.1584 1.21002 18.1782 1.21002 18.2178L2.38279 18.2376L6.64574 18.2574L15.1902 18.2772L23.7347 18.2574L27.9977 18.2376L30.79 18.198ZM31.0879 17.5842C31.0879 17.5842 31.0879 17.5644 31.1065 17.5644L27.9977 17.5248L23.7347 17.505L15.1902 17.4852L6.64574 17.505L2.38279 17.5248L1.37756 17.5446C1.37756 17.5644 1.37756 17.604 1.35894 17.6238L2.36418 17.6436L6.62712 17.6634L15.1716 17.6832L23.7161 17.6634L27.9791 17.6436L31.0879 17.5842ZM31.2368 16.9901V16.9703L27.9791 16.9307L23.7161 16.9109L15.1716 16.8911L6.62712 16.9109L2.36418 16.9307L1.43341 16.9505C1.43341 16.9703 1.43341 17.0099 1.43341 17.0297L2.36418 17.0495L6.62712 17.0693L15.1716 17.0891L23.7161 17.0693L27.9791 17.0495L31.2368 16.9901ZM31.2368 16.396V16.3762L27.9977 16.3366L23.7347 16.3168L15.1902 16.297L6.64574 16.3168L2.38279 16.3366L1.45202 16.3564C1.45202 16.3762 1.45202 16.4158 1.45202 16.4356L2.38279 16.4555L6.64574 16.4753L15.1902 16.4951L23.7347 16.4753L27.9977 16.4555L31.2368 16.396Z" fill="#E1E3EF"/>
<path d="M10.5364 19.0099L11.765 18.2574L12.975 19.0099V15.703H10.5364V19.0099Z" fill="#8F98FF"/>
</svg>