<svg width="22" height="20" viewBox="0 0 22 20" fill="none" xmlns="http://www.w3.org/2000/svg">
<path d="M10.4143 11.8894C10.4143 11.5467 10.1896 11.255 10.0881 10.9269C9.25422 8.07597 7.97807 9.95716 8.14484 8.30929C8.28261 6.96767 6.3684 6.31874 6.20888 6.90205C6.08561 7.3687 5.47655 7.6239 5.18651 7.23016C4.81672 6.73435 4.96174 6.02708 4.63545 5.50939C4.44693 5.21044 4.09164 4.99899 3.72185 4.96982C3.38831 4.94066 3.04028 5.04274 2.71399 4.95524C2.13393 4.79483 1.83664 4.09485 1.24208 4.01465C1.19132 4.00735 1.14057 4.00735 1.08981 4.02923C0.995549 4.06569 0.959295 4.17506 0.937542 4.26985C0.872285 4.52505 0.814279 4.80941 0.966546 5.02815C1.10431 5.22502 1.37984 5.30523 1.51036 5.5021C1.64087 5.69896 1.59737 5.96146 1.51761 6.1802C1.43785 6.39894 1.32184 6.62498 1.33634 6.8583C1.35084 7.19371 1.62637 7.48536 1.9454 7.6239C2.27169 7.76973 2.63423 7.7916 2.99677 7.7916C3.09103 7.7916 3.18529 7.7916 3.2723 7.82077C3.55508 7.91556 3.62034 8.302 3.43907 8.52804C3.36656 8.61553 3.2723 8.68845 3.22155 8.78324C3.08378 9.03844 3.33031 9.35197 3.62034 9.43946C3.91037 9.51967 4.22216 9.45405 4.52669 9.41759C4.83122 9.38113 5.17201 9.38843 5.39679 9.578C5.67957 9.82591 5.65057 10.2488 5.81733 10.5842C5.99135 10.9415 6.39015 11.1602 6.79619 11.255C7.20224 11.3498 7.62279 11.3352 8.04333 11.3571C8.92068 11.4009 9.79803 11.5904 10.5521 12.0133" fill="#4DC591"/>
<path opacity="0.2" d="M3.03631 9.03746C3.26834 9.83222 3.98617 10.503 4.63149 11.028C5.31306 11.5822 6.0744 12.0415 6.84298 12.479C8.45266 13.3977 10.1348 14.2508 11.382 15.607C11.4182 15.6435 11.4762 15.5924 11.44 15.556C10.3451 14.2654 8.7862 13.4415 7.29253 12.6175C6.53845 12.1946 5.77711 11.7717 5.08104 11.2613C4.29795 10.6926 3.35535 9.94889 3.06531 9.03017C3.05806 9.01558 3.02906 9.02287 3.03631 9.03746Z" fill="#444472"/>
<path d="M6.73215 13.9924C6.57988 14.2549 6.3261 14.4372 6.07958 14.6122C5.54302 14.984 4.97745 15.3267 4.35388 15.509C4.19437 15.5601 4.0276 15.5965 3.86083 15.5819C3.69406 15.5674 3.52729 15.5017 3.42578 15.3632C3.28802 15.1809 3.30252 14.9257 3.27351 14.6924C3.26626 14.6195 3.24451 14.5466 3.19376 14.4955C3.07049 14.3789 2.88197 14.4882 2.75146 14.5903C2.64269 14.6778 2.53393 14.7653 2.43242 14.8528C2.30191 14.9622 2.12789 15.0715 1.96837 15.0059C1.83786 14.9476 1.77985 14.7799 1.8161 14.6414C1.85236 14.5028 1.96112 14.3934 2.07713 14.3059C2.19314 14.2257 2.33091 14.1601 2.44692 14.0726C2.47593 14.0507 2.50493 14.0289 2.51218 13.9997C2.54118 13.9195 2.45417 13.8466 2.38167 13.8174C2.20765 13.7518 2.01187 13.7518 1.84511 13.832C1.67834 13.9049 1.55507 14.0435 1.41006 14.1528C1.26504 14.2622 1.09102 14.357 0.917003 14.3205C0.750234 14.2841 0.612469 14.1455 0.525459 13.9924C0.394945 13.7737 0.525459 13.3216 0.902501 13.3143C1.11277 13.307 1.32305 13.3143 1.53332 13.3143C1.67109 13.3143 1.84511 13.2779 1.86686 13.1393C1.88136 13.0299 1.76535 12.9497 1.66384 12.906C1.26504 12.7383 0.808241 12.8039 0.380443 12.7456C-0.27938 12.6581 -0.0328531 11.5862 0.750234 11.6008C0.953257 11.6008 1.15628 11.6592 1.33755 11.7539C1.54782 11.8633 1.72909 12.0383 1.96112 12.0966C2.04088 12.1185 2.13514 12.1258 2.2149 12.0966C2.29466 12.0602 2.35266 11.9727 2.33091 11.8852C2.30916 11.7977 2.22215 11.7539 2.14964 11.7029C1.94662 11.5498 1.85961 11.2654 1.88136 11.0102C1.89586 10.8571 1.94662 10.6967 2.07713 10.6311C2.23665 10.5436 2.43967 10.6311 2.55568 10.7696C2.67895 10.9009 2.73696 11.0758 2.83122 11.229C2.92548 11.3821 3.07049 11.5279 3.25176 11.5352C3.28077 11.5352 3.30977 11.5352 3.33877 11.5133C3.36052 11.4987 3.36778 11.4769 3.38228 11.455C3.44753 11.2946 3.38953 11.1123 3.36777 10.9373C3.34602 10.7623 3.40403 10.5509 3.5708 10.5071C3.70856 10.4707 3.84633 10.5727 3.91159 10.704C3.97684 10.8279 3.99859 10.9738 4.0566 11.105C4.21612 11.506 4.70917 11.7321 5.11522 11.6008C5.23123 11.5644 5.33999 11.4987 5.45601 11.4769C5.65178 11.4404 5.86205 11.5206 6.02157 11.6446C6.18109 11.7758 6.2971 11.9435 6.40586 12.1185C6.68139 12.5633 6.92792 13.1029 6.74665 13.5987" fill="#4DC591"/>
<g opacity="0.41">
<path opacity="0.41" d="M1.59131 12.9601C1.61318 12.9528 1.63506 12.9528 1.65693 12.9456C1.63506 12.9528 1.61318 12.9528 1.59131 12.9601C1.59131 12.9601 1.59131 12.9528 1.59131 12.9601Z" fill="#444472"/>
<path opacity="0.41" d="M1.86001 12.8872C1.79475 12.9091 1.72949 12.931 1.65698 12.9456C1.72949 12.9383 1.79475 12.9164 1.86001 12.8872Z" fill="#444472"/>
</g>
<path d="M9.13952 14.8682C9.20335 14.4553 9.50595 14.1379 9.67204 13.7593C11.1271 10.4501 12.1532 12.9633 12.2859 10.9372C12.3962 9.2826 14.6001 8.84245 14.6629 9.57747C14.7072 10.1589 15.3207 10.5775 15.7139 10.1556C16.2126 9.6222 16.1891 8.74216 16.6465 8.16701C16.9116 7.83865 17.3378 7.64645 17.7434 7.66969C18.1128 7.69216 18.4714 7.88214 18.8424 7.83171C19.5028 7.74078 19.9591 6.94245 20.6217 6.95513C20.6783 6.95342 20.7362 6.96195 20.7818 6.99793C20.8776 7.06415 20.8994 7.20172 20.904 7.3258C20.9264 7.63988 20.9391 8.00189 20.7252 8.24092C20.5393 8.45574 20.225 8.50446 20.0448 8.72379C19.859 8.93861 19.8623 9.26541 19.9013 9.5463C19.946 9.83168 20.027 10.1178 19.9732 10.3997C19.8923 10.7991 19.542 11.1066 19.1581 11.221C18.7799 11.3398 18.3718 11.2961 17.9873 11.2339C17.8875 11.2201 17.782 11.2018 17.6757 11.22C17.348 11.2859 17.202 11.7452 17.3522 12.0489C17.4077 12.1667 17.5027 12.2694 17.5392 12.4C17.6365 12.7361 17.3103 13.0719 16.9801 13.1174C16.6454 13.1686 16.3235 13.0261 16.0021 12.9302C15.6806 12.8344 15.312 12.7755 15.0308 12.9708C14.6732 13.2169 14.6229 13.7424 14.3831 14.1092C14.1266 14.5093 13.6496 14.7077 13.189 14.7431C12.7342 14.7829 12.2747 14.6988 11.8189 14.6453C10.8736 14.558 10.0395 14.4935 9.13952 14.8682Z" fill="#4DC591"/>
<path d="M8.12126 14.6451C8.80894 13.9071 9.50387 13.1691 10.0402 12.3131C10.8999 10.9422 11.3123 9.29769 11.2168 7.67815C11.2038 7.50304 11.1404 7.27647 10.9664 7.27502C10.8866 7.27435 10.821 7.31756 10.7626 7.36811C10.6093 7.49079 10.4704 7.62818 10.3531 7.78033C10.2725 7.88903 10.1699 8.01213 10.0395 7.99646C9.94535 7.98839 9.88076 7.90764 9.83792 7.82707C9.62358 7.43883 9.75093 6.94406 9.98601 6.57414C10.2211 6.20422 10.5571 5.90077 10.7923 5.52356C11.0274 5.14636 11.1475 4.65152 10.9259 4.27051C10.8686 4.17524 10.7824 4.08702 10.6736 4.08612C10.6228 4.08569 10.5792 4.1072 10.5355 4.12871C10.055 4.36534 9.87608 4.95447 9.64729 5.44111C9.62512 5.49197 9.58839 5.54999 9.53745 5.57144C9.45745 5.59994 9.37824 5.53366 9.32803 5.46762C9.07013 5.0863 9.29904 4.58508 9.49104 4.16376C9.74949 3.59717 9.94335 2.94982 9.76702 2.35044C9.72459 2.21883 9.66042 2.08705 9.54501 2.01317C9.27081 1.85047 8.92038 2.13922 8.85979 2.45225C8.79921 2.76529 8.89807 3.08695 8.90268 3.40782C8.90202 3.48802 8.89411 3.56817 8.83562 3.62601C8.74065 3.71272 8.57436 3.653 8.51001 3.54309C8.44566 3.43318 8.45405 3.29471 8.46963 3.16359C8.55779 2.14349 8.61055 1.02101 7.9791 0.213664C7.91451 0.132917 7.84267 0.0521102 7.7414 0.0220999C7.54605 -0.0305692 7.35628 0.120975 7.26058 0.295178C7.00303 0.752408 7.12154 1.32944 7.32784 1.81241C7.53414 2.29538 7.82769 2.74991 7.925 3.26113C7.95975 3.44371 7.96538 3.64064 7.89149 3.80773C7.8176 3.97482 7.64245 4.11191 7.4613 4.09581C7.22222 4.07195 7.07194 3.83007 6.97223 3.61049C6.88666 3.43478 6.8011 3.25906 6.71547 3.09064C6.66556 2.98814 6.59402 2.87088 6.47801 2.86991C6.33306 2.86141 6.25899 3.05038 6.25773 3.20349C6.25418 3.63367 6.49015 4.03668 6.79215 4.34545C7.0869 4.65415 7.44745 4.89778 7.77869 5.17763C7.86509 5.25126 7.95144 5.33219 8.00135 5.43469C8.06553 5.56647 8.05696 5.72682 8.02675 5.8724C7.9519 6.15615 7.7686 6.40254 7.51363 6.54625C7.32421 6.65405 7.10628 6.70328 6.93837 6.84042C6.65374 7.06409 6.57757 7.50825 6.77806 7.81617C6.94985 8.08739 7.27517 8.20677 7.58652 8.2604C7.89787 8.31404 8.22421 8.30947 8.52795 8.40679C8.66535 8.45168 8.80263 8.51116 8.88143 8.62848C8.99605 8.79715 8.96519 9.02293 8.88393 9.20455C8.75839 9.48058 8.5317 9.71203 8.25522 9.82639C8.00055 9.93365 7.7176 9.95316 7.45585 10.0385C7.19417 10.1165 6.92446 10.2893 6.85698 10.5585C6.75948 10.9514 7.13369 11.2973 7.49472 11.4826C7.8558 11.6606 8.28238 11.81 8.45339 12.176C8.57461 12.4249 8.5359 12.7235 8.48292 12.9929C8.3693 13.5826 8.18335 14.1498 7.93232 14.6945" fill="#4DC591"/>
<path d="M14.5453 7.9185C14.8571 7.67788 15.1253 7.36435 15.3066 6.99978C15.4879 6.62791 15.5604 6.20501 15.6184 5.78211C15.6764 5.31546 15.7199 4.84881 15.7344 4.37486C15.0383 4.47694 14.3495 4.61548 13.6969 4.88526C13.0444 5.15505 12.4135 5.54149 11.9712 6.1248C11.2099 7.13102 11.2389 8.45806 11.2389 8.45806C11.2389 8.45806 12.8558 9.20179 14.5453 7.9185Z" fill="#4DC591"/>
<path d="M11.0252 4.96278L6.09692 15.821L6.3014 15.9149L11.2296 5.05662L11.0252 4.96278Z" fill="#00664F"/>
<path d="M6.05858 16.1714C5.89181 16.0985 5.8193 15.8943 5.89181 15.7266C5.96432 15.5589 6.16734 15.486 6.33411 15.5589C9.14742 16.8495 12.4755 15.6027 13.7589 12.7736C15.0423 9.94454 13.8024 6.59778 10.9891 5.3072C10.8224 5.23428 10.7498 5.03012 10.8224 4.86242C10.8949 4.69472 11.0979 4.6218 11.2647 4.69472C14.4043 6.13842 15.7964 9.87892 14.3607 13.0434C12.9251 16.2225 9.20543 17.6151 6.05858 16.1714Z" fill="#00664F"/>
<path d="M8.66169 15.7193C11.561 15.7193 13.9113 13.3559 13.9113 10.4404C13.9113 7.52485 11.561 5.16136 8.66169 5.16136C5.76243 5.16136 3.41211 7.52485 3.41211 10.4404C3.41211 13.3559 5.76243 15.7193 8.66169 15.7193Z" fill="#B0DDC9"/>
<path d="M13.4399 12.6351C13.2587 13.0361 13.0339 13.4007 12.7729 13.7361C12.1493 13.9986 11.4532 14.0861 10.7861 13.9694C10.6991 13.9548 10.6121 13.9329 10.5469 13.8746C10.3511 13.6996 10.5179 13.3861 10.5179 13.1236C10.5179 12.9049 10.3873 12.708 10.2641 12.5257C9.98855 12.1174 9.71302 11.6143 9.87979 11.1403C10.0466 10.6664 10.6049 10.4112 10.7499 9.92996C10.8804 9.4706 10.5831 8.99665 10.5759 8.51542C10.5686 8.14356 10.7499 7.78628 11.0037 7.52379C11.2647 7.2613 11.5982 7.0863 11.9463 6.96235C12.1275 6.89672 12.3306 6.85297 12.5263 6.85297C13.9112 8.37688 14.3463 10.6445 13.4399 12.6351ZM7.06648 15.3694C7.33476 15.2381 7.55953 14.9902 7.61029 14.6986C7.66105 14.3777 7.50153 14.0642 7.30576 13.809C7.10273 13.5538 6.86346 13.3351 6.69669 13.058C6.62418 12.9413 6.57342 12.8101 6.57342 12.6715C6.58068 12.2924 6.98672 12.0299 7.03023 11.658C7.07373 11.3299 6.8127 11.031 6.52267 10.8851C6.22539 10.7393 5.89185 10.7028 5.57281 10.6154C5.25378 10.5279 4.93474 10.3529 4.80423 10.0466C4.64471 9.66017 4.84773 9.20081 4.63021 8.83624C4.49244 8.60292 4.1299 8.4498 3.81812 8.39876C2.72325 11.0164 3.89063 14.0569 6.47916 15.2454C6.63143 15.311 6.77645 15.3767 6.92871 15.4277C6.97947 15.4131 7.02297 15.3912 7.06648 15.3694ZM5.60907 6.14571C5.62357 6.20404 5.64532 6.26237 5.67433 6.31341C5.9281 6.85297 6.47191 7.2613 6.55167 7.8519C6.57342 8.01231 6.56617 8.1946 6.66769 8.31855C6.71844 8.38417 6.7982 8.42063 6.87796 8.45709C7.53778 8.73416 8.36437 8.53729 8.82117 7.98315C9.26347 7.44358 9.34323 6.69256 9.69127 6.08738C9.79278 5.91238 9.91605 5.74468 9.91605 5.54052C9.91605 5.45302 9.88704 5.37282 9.84354 5.2999C8.34987 4.94991 6.8127 5.27803 5.60907 6.14571Z" fill="#2EA889"/>
<path d="M9.1764 16.6162H8.14679V19.0807H9.1764V16.6162Z" fill="#00664F"/>
<path d="M12.7294 19.963H4.59397C4.32569 19.963 4.11542 19.7442 4.11542 19.4817C4.11542 19.2119 4.33294 19.0005 4.59397 19.0005H12.7221C12.9904 19.0005 13.2007 19.2192 13.2007 19.4817C13.2079 19.7442 12.9904 19.963 12.7294 19.963Z" fill="#00664F"/>
</svg>