<svg width="25" height="21" viewBox="0 0 25 21" fill="none" xmlns="http://www.w3.org/2000/svg">
<path d="M22.1667 4.41666H17.3334V2.41666C17.3334 1.31666 16.2459 0.416664 14.9167 0.416664H10.0834C8.75419 0.416664 7.66669 1.31666 7.66669 2.41666V4.41666H2.83335C1.50419 4.41666 0.416687 5.31666 0.416687 6.41666V18.4167C0.416687 19.5167 1.50419 20.4167 2.83335 20.4167H22.1667C23.4959 20.4167 24.5834 19.5167 24.5834 18.4167V6.41666C24.5834 5.31666 23.4959 4.41666 22.1667 4.41666ZM10.0834 2.41666H14.9167V4.41666H10.0834V2.41666ZM16.125 13.4167H13.7084V15.4167C13.7084 15.9667 13.1646 16.4167 12.5 16.4167C11.8354 16.4167 11.2917 15.9667 11.2917 15.4167V13.4167H8.87502C8.21044 13.4167 7.66669 12.9667 7.66669 12.4167C7.66669 11.8667 8.21044 11.4167 8.87502 11.4167H11.2917V9.41666C11.2917 8.86666 11.8354 8.41666 12.5 8.41666C13.1646 8.41666 13.7084 8.86666 13.7084 9.41666V11.4167H16.125C16.7896 11.4167 17.3334 11.8667 17.3334 12.4167C17.3334 12.9667 16.7896 13.4167 16.125 13.4167Z" fill="#F06565"/>
</svg>